<svg xmlns="http://www.w3.org/2000/svg" xmlns:xlink="http://www.w3.org/1999/xlink" width="24" height="24" viewBox="0 0 24 24">
    <defs>
        <path id="a" d="M14.084 21.458v-2.44c0-1.165-.592-1.784-1.08-2.119 2.647-.273 5.486-1.227 5.486-5.795 0-1.282-.454-2.33-1.205-3.138.12-.31.525-1.526-.119-3.134 0 0-1.32 0-3.22 1.229-.942-.26-1.944-.348-2.945-.348-.99 0-2.004.088-2.934.348-2.242-1.52-3.232-1.2-3.232-1.2-.633 1.608-.24 2.796-.12 3.105-.751.808-1.204 1.856-1.204 3.138 0 4.568 2.837 5.522 5.486 5.795-.49.335-1.08.954-1.08 2.119v2.44C3.399 20.124.09 15.944.09 11 .09 4.985 4.985.09 11 .09 17.015.09 21.91 4.986 21.91 11c0 4.944-3.31 9.124-7.826 10.458z"/>
    </defs>
    <g fill="none" fill-rule="evenodd" transform="translate(1 1)">
        <mask id="b" fill="#fff">
            <use xlink:href="#a"/>
        </mask>
        <g fill="#000" mask="url(#b)">
            <path d="M-1-1h24v24H-1z"/>
        </g>
    </g>
</svg>
