<svg xmlns="http://www.w3.org/2000/svg" xmlns:xlink="http://www.w3.org/1999/xlink" width="24" height="24" viewBox="0 0 24 24">
    <defs>
        <path id="a" d="M14.474 6.006l-.2-.156c-.26-.204-1.581.015-1.94-.307-.25-.233-.29-.65-.367-1.212-.141-1.095-.231-1.152-.402-1.522C10.94 1.492 9.253.502 8.09.364H4.95C2.476.364.455 2.382.455 4.847v5.226c0 2.46 2.021 4.473 4.495 4.473h5.164c2.473 0 4.48-2.014 4.494-4.473l.028-3.62-.042-.199-.12-.248zm-9.467-1.98H7.5c.475 0 .86.384.86.854a.861.861 0 0 1-.86.857H5.007a.863.863 0 0 1-.862-.857.86.86 0 0 1 .862-.854zm5.063 6.834H5.007a.863.863 0 0 1-.862-.854c0-.468.385-.852.862-.852h5.063c.47 0 .857.384.857.852a.863.863 0 0 1-.857.854z"/>
    </defs>
    <g fill="none" fill-rule="evenodd" transform="translate(5 4)">
        <mask id="b" fill="#fff">
            <use xlink:href="#a"/>
        </mask>
        <g fill="#000" mask="url(#b)">
            <path d="M-5-4h24v24H-5z"/>
        </g>
    </g>
</svg>
