<svg xmlns="http://www.w3.org/2000/svg" xmlns:xlink="http://www.w3.org/1999/xlink" width="24" height="24" viewBox="0 0 24 24">
    <defs>
        <path id="a" d="M14.674.51c.865 0 1.569.705 1.569 1.575 0 .869-.704 1.576-1.57 1.576a1.574 1.574 0 0 1-1.567-1.566l-2.669-.631-.983 3.124c1.835.08 3.49.6 4.73 1.41a1.887 1.887 0 0 1 1.283-.506c1.05 0 1.904.857 1.904 1.912 0 .709-.393 1.32-.966 1.649.028.175.045.354.045.536 0 2.767-3.359 5.018-7.485 5.018-4.127 0-7.484-2.251-7.484-5.018 0-.194.02-.384.052-.571a1.903 1.903 0 0 1-.904-1.615c0-1.055.854-1.912 1.902-1.912.482 0 .912.19 1.246.489 1.306-.845 3.065-1.373 5.006-1.404L9.913.982a.322.322 0 0 1 .38-.216l2.942.695A1.57 1.57 0 0 1 14.674.51zM8.965 5.217c-3.772 0-6.84 1.962-6.84 4.374 0 2.41 3.068 4.37 6.84 4.37s6.841-1.96 6.841-4.37c0-2.412-3.07-4.374-6.84-4.374zm-2.213 6.306c.438.439 1.17.652 2.238.652l.009.002.01-.002c1.067 0 1.8-.213 2.237-.652a.319.319 0 0 1 .455 0 .326.326 0 0 1 0 .457c-.524.526-1.322.802-2.432.838l-.261.004-.01-.001-.009.001c-1.247 0-2.128-.275-2.692-.842a.325.325 0 0 1 0-.457.318.318 0 0 1 .455 0zM6.478 7.51c.64 0 1.159.52 1.159 1.164 0 .643-.519 1.165-1.159 1.165S5.32 9.316 5.32 8.673 5.839 7.51 6.478 7.51zm5.047 0c.64 0 1.158.52 1.158 1.164 0 .643-.518 1.165-1.158 1.165-.64 0-1.159-.522-1.159-1.165s.52-1.164 1.159-1.164zm3.942-1.369c-.278 0-.53.098-.736.253.71.576 1.226 1.261 1.498 2.012.302-.23.498-.592.498-1 0-.697-.566-1.265-1.26-1.265zm-12.936 0c-.693 0-1.258.568-1.258 1.264 0 .383.177.72.447.952.281-.743.804-1.422 1.52-1.99a1.227 1.227 0 0 0-.709-.226zm12.143-4.983a.928.928 0 0 0 0 1.857.928.928 0 0 0 0-1.857z"/>
    </defs>
    <g fill="none" fill-rule="evenodd" transform="translate(3 4)">
        <mask id="b" fill="#fff">
            <use xlink:href="#a"/>
        </mask>
        <g fill="#000" mask="url(#b)">
            <path d="M-3-4h24v24H-3z"/>
        </g>
    </g>
</svg>
