<svg id="Layer_1" data-name="Layer 1" xmlns="http://www.w3.org/2000/svg" viewBox="0 0 88 88"><defs><style>.cls-1{fill:#e8e8e8;}.cls-2{fill:#54706b;}.cls-2,.cls-3,.cls-4,.cls-5{opacity:0.75;}.cls-3{fill:#26af05;}.cls-4{fill:#258e16;}.cls-5{fill:#b9d60b;}</style></defs><title>Logj_quadro</title><rect class="cls-1" width="88" height="87.82"/><path class="cls-2" d="M43.41,35.29h-14V40.9l14.78,0v4.77l-14.78-.16v6.8H44.06V57H24V30.61H43.41Z"/><path class="cls-3" d="M60.72,38.83a5.51,5.51,0,0,1,2-2.1,14.44,14.44,0,0,0,1.74-1.38A2,2,0,0,0,65,33.93a1.58,1.58,0,0,0-.35-1,1.42,1.42,0,0,0-2.21.25,3.29,3.29,0,0,0-.22,1.22H60.37a4.78,4.78,0,0,1,.46-2,2.86,2.86,0,0,1,2.77-1.48,3.52,3.52,0,0,1,2.5.87A3,3,0,0,1,67,34a3.12,3.12,0,0,1-.66,2A6.54,6.54,0,0,1,65,37.21l-.78.55q-.73.52-1,.75a2.2,2.2,0,0,0-.45.54H67v1.72H60.26A4.66,4.66,0,0,1,60.72,38.83Z"/><polygon class="cls-4" points="43.84 40.88 49.71 40.88 54.12 48.96 49.35 57.04 43.84 57.04 48.98 48.96 43.84 40.88"/><polygon class="cls-5" points="60 40.88 54.12 40.88 49.71 48.96 54.49 57.04 60 57.04 54.86 48.96 60 40.88"/></svg>