<svg xmlns="http://www.w3.org/2000/svg" xmlns:xlink="http://www.w3.org/1999/xlink" width="24" height="24" viewBox="0 0 24 24">
    <defs>
        <path id="a" d="M5.526 13.443c0 .48-.36.68-.759.48l-4.304-2.15a.782.782 0 0 1-.328-.31.817.817 0 0 1-.135-.43V.51C0 .117.236-.06.769.205l4.73 2.363c.068.069.018-.401.027 10.875zm.593-9.897l4.943 7.995-4.943-2.455v-5.54zm10.468.167v9.73a.532.532 0 0 1-.13.374.451.451 0 0 1-.351.143.873.873 0 0 1-.435-.12l-4.082-2.031 4.998-8.096zm-.027-1.108c0 .019-.792 1.31-2.374 3.872-1.583 2.563-2.51 4.064-2.782 4.501l-3.61-5.853L10.793.26a.561.561 0 0 1 .722-.203l5.008 2.493c.024.011.037.03.037.055z"/>
    </defs>
    <g fill="none" fill-rule="evenodd" transform="translate(4 5)">
        <mask id="b" fill="#fff">
            <use xlink:href="#a"/>
        </mask>
        <g fill="#000" mask="url(#b)">
            <path d="M-4-5h24v24H-4z"/>
        </g>
    </g>
</svg>
