<svg xmlns="http://www.w3.org/2000/svg" xmlns:xlink="http://www.w3.org/1999/xlink" width="24" height="24" viewBox="0 0 24 24">
    <defs>
        <path id="a" d="M12.035.455H1.965a1.51 1.51 0 0 0-1.51 1.51v10.07a1.51 1.51 0 0 0 1.51 1.511h10.07a1.51 1.51 0 0 0 1.51-1.511V1.965a1.51 1.51 0 0 0-1.51-1.51zM7 4.482a2.518 2.518 0 1 1 0 5.035 2.518 2.518 0 0 1 0-5.035zm5.035 7.05a.503.503 0 0 1-.504.503H2.47a.503.503 0 0 1-.504-.503v-5.54h1.14c-.083.322-.133.66-.133 1.009a4.028 4.028 0 0 0 8.056 0c0-.349-.049-.687-.132-1.008h1.14v5.539zm0-7.553a.504.504 0 0 1-.504.503h-1.51a.504.504 0 0 1-.504-.503V2.468c0-.278.226-.504.505-.504h1.51c.278 0 .504.226.504.504v1.51z"/>
    </defs>
    <g fill="none" fill-rule="evenodd" transform="translate(5 5)">
        <mask id="b" fill="#fff">
            <use xlink:href="#a"/>
        </mask>
        <g fill="#000" mask="url(#b)">
            <path d="M-5-5h24v24H-5z"/>
        </g>
    </g>
</svg>
