<svg xmlns="http://www.w3.org/2000/svg" xmlns:xlink="http://www.w3.org/1999/xlink" version="1.1" x="0px" y="0px" viewBox="0 0 100 125" style="enable-background:new 0 0 100 100;" xml:space="preserve">
    <style type="text/css">
    .st0 {
        fill: #fff;
    }
    </style>
    <g>
        <g>
            <path fill="#fff" d="M50.3,93c-1.6,0-3.8-0.2-6-0.4C32.1,91.3,22.9,81.3,22.9,69V31.2c0-12.3,9.1-22.3,21.4-23.6c2.2-0.2,4.4-0.4,6-0.4    s3.8,0.2,6,0.4c12.3,1.3,21.4,11.3,21.4,23.6v37.7c0,12.3-9.1,22.3-21.4,23.6C54.2,92.8,52,93,50.3,93z M50.3,10.9    c-1.6,0-3.5,0.2-5.7,0.4c-10.4,1.1-18.1,9.7-18.1,19.9v37.7c0,10.4,7.7,19,18.1,19.9c2.2,0.2,4.2,0.4,5.7,0.4    c1.5,0,3.5-0.2,5.7-0.4c10.2-1.1,18.1-9.7,18.1-19.9V31.2c0-10.4-7.7-19-18.1-19.9C53.8,11,52,10.9,50.3,10.9z" />
        </g>
        <g>
            <circle class="st0" cx="50.3" cy="74.7" r="5.5" />
        </g>
    </g>
</svg>